<svg id="svg" version="1.1" width="400" height="400" viewBox="0 0 400 400" xmlns="http://www.w3.org/2000/svg" xmlns:xlink="http://www.w3.org/1999/xlink" ><g id="svgg"><path id="path0" d="M213.933 1.935 C 213.860 2.119,212.810 3.114,211.600 4.147 C 207.959 7.254,206.384 9.181,206.446 10.453 C 206.487 11.272,206.519 11.292,206.686 10.600 C 206.887 9.767,208.990 7.600,209.598 7.600 C 209.789 7.600,210.060 7.240,210.200 6.800 C 210.497 5.866,212.000 5.710,212.000 6.613 C 212.000 6.950,211.595 7.382,211.100 7.573 C 210.317 7.875,210.289 7.956,210.881 8.195 C 211.255 8.347,211.752 8.353,211.985 8.209 C 212.218 8.065,212.947 8.485,213.604 9.143 L 214.800 10.338 214.800 62.541 C 214.800 109.464,214.864 114.806,215.429 115.371 C 215.996 115.939,224.492 116.000,302.975 116.000 C 389.286 116.000,389.899 116.006,390.909 116.800 C 391.624 117.362,392.532 117.600,393.963 117.600 C 396.007 117.600,396.774 118.272,395.200 118.684 C 394.760 118.799,394.400 119.045,394.400 119.230 C 394.400 119.416,393.977 119.980,393.461 120.484 C 392.944 120.988,391.999 122.120,391.361 123.000 L 390.200 124.600 391.800 123.286 C 393.861 121.594,394.088 121.382,394.763 120.519 C 395.072 120.124,396.141 118.949,397.138 117.909 C 399.350 115.603,399.239 115.471,394.875 115.209 L 391.400 115.000 391.195 62.400 C 391.082 33.470,390.947 9.755,390.895 9.700 C 390.843 9.645,351.506 9.600,303.480 9.600 C 236.098 9.600,216.050 9.490,215.680 9.120 C 215.395 8.835,215.200 7.465,215.200 5.753 C 215.200 2.311,214.556 0.371,213.933 1.935 M4.810 5.543 C 2.967 7.444,1.086 9.117,0.630 9.260 C -0.100 9.489,-0.074 9.525,0.851 9.560 C 1.429 9.582,2.126 9.330,2.400 9.000 C 2.704 8.634,3.580 8.400,4.649 8.400 L 6.400 8.400 6.400 6.400 C 6.400 4.889,6.547 4.400,7.000 4.400 C 7.330 4.400,7.624 4.175,7.654 3.900 C 7.684 3.625,7.846 4.710,8.014 6.311 C 8.182 7.912,8.517 9.459,8.758 9.750 C 9.070 10.126,9.226 25.438,9.299 62.821 L 9.400 115.364 10.400 115.642 C 10.950 115.795,50.327 115.938,97.904 115.960 C 183.888 116.000,184.412 116.005,185.093 116.800 C 185.653 117.454,186.273 117.600,188.489 117.600 C 191.116 117.600,192.035 118.081,190.400 118.600 C 189.960 118.740,189.600 119.022,189.600 119.227 C 189.600 119.432,189.150 119.600,188.600 119.600 C 187.756 119.600,187.600 119.787,187.600 120.800 C 187.600 121.558,187.395 122.000,187.043 122.000 C 186.737 122.000,186.374 122.450,186.236 123.000 C 186.068 123.670,185.691 124.015,185.092 124.046 C 184.435 124.081,184.381 124.140,184.887 124.273 C 185.738 124.497,193.732 116.520,193.434 115.745 C 193.296 115.386,192.075 115.195,189.405 115.115 L 185.575 115.000 185.593 63.576 C 185.606 26.818,185.485 11.789,185.167 10.876 L 184.722 9.600 98.348 9.600 C 23.828 9.600,11.784 9.520,10.587 9.020 L 9.200 8.441 9.200 5.463 C 9.200 1.410,8.808 1.417,4.810 5.543 M107.474 142.880 C 105.314 145.080,103.649 146.983,103.774 147.107 C 103.898 147.232,104.000 147.123,104.000 146.867 C 104.000 146.610,104.360 146.400,104.800 146.400 C 105.327 146.400,105.600 146.133,105.600 145.619 C 105.600 144.917,105.802 144.862,107.600 145.075 L 109.600 145.311 109.600 143.299 C 109.600 141.878,109.777 141.218,110.200 141.055 C 110.530 140.929,110.831 140.504,110.869 140.113 C 111.340 135.249,111.714 156.083,111.933 199.400 C 112.080 228.440,112.354 252.515,112.543 252.900 C 112.868 253.563,117.441 253.600,200.209 253.600 C 269.713 253.600,287.567 253.702,287.699 254.100 C 287.806 254.421,289.074 254.685,291.233 254.836 C 293.521 254.996,294.318 255.169,293.721 255.377 C 293.238 255.545,292.787 255.973,292.719 256.328 C 292.621 256.837,292.183 256.948,290.647 256.853 L 288.699 256.733 288.974 258.567 C 289.231 260.280,289.182 260.427,288.225 260.791 C 287.015 261.251,286.832 261.771,288.012 261.396 C 288.945 261.100,295.200 254.996,295.200 254.382 C 295.200 254.158,295.470 253.871,295.800 253.745 C 297.267 253.182,296.110 252.820,292.500 252.714 L 288.600 252.600 288.499 200.348 C 288.414 156.679,288.307 148.021,287.849 147.641 C 287.443 147.304,264.673 147.188,200.095 147.196 C 120.733 147.206,112.866 147.150,112.644 146.571 C 112.510 146.221,112.400 144.531,112.400 142.816 C 112.400 138.168,112.094 138.172,107.474 142.880 M315.474 142.880 C 313.314 145.080,311.649 146.983,311.774 147.107 C 311.898 147.232,312.000 147.123,312.000 146.867 C 312.000 146.610,312.360 146.400,312.800 146.400 C 313.327 146.400,313.600 146.133,313.600 145.619 C 313.600 144.917,313.802 144.862,315.600 145.075 L 317.600 145.311 317.600 143.299 C 317.600 141.878,317.777 141.218,318.200 141.055 C 318.530 140.929,318.831 140.504,318.869 140.113 C 319.340 135.249,319.714 156.083,319.933 199.400 C 320.080 228.440,320.354 252.515,320.543 252.900 C 320.865 253.558,322.931 253.601,355.343 253.613 C 385.007 253.624,389.908 253.707,390.576 254.213 C 391.084 254.597,392.330 254.804,394.176 254.813 C 396.728 254.824,396.923 254.880,396.200 255.394 C 394.738 256.434,394.000 257.332,394.000 258.070 C 394.000 258.471,393.736 258.800,393.414 258.800 C 393.092 258.800,392.628 259.175,392.383 259.633 C 392.138 260.090,391.366 260.713,390.669 261.017 C 389.971 261.320,389.637 261.576,389.926 261.584 C 391.042 261.618,394.400 258.957,394.400 258.040 C 394.400 257.798,394.535 257.599,394.700 257.598 C 394.982 257.596,396.547 256.107,398.347 254.131 C 399.378 252.999,398.886 252.800,395.047 252.800 C 393.335 252.800,391.965 252.605,391.680 252.320 C 391.312 251.952,391.200 239.818,391.200 200.143 L 391.200 148.445 390.311 147.823 C 389.523 147.271,385.522 147.200,355.154 147.200 C 324.275 147.200,320.862 147.137,320.643 146.567 C 320.509 146.219,320.400 144.531,320.400 142.816 C 320.400 138.168,320.094 138.172,315.474 142.880 M4.800 142.809 C 2.930 144.775,1.085 146.387,0.700 146.392 C 0.315 146.396,0.000 146.580,0.000 146.800 C 0.000 147.020,0.230 147.200,0.511 147.200 C 1.342 147.200,2.800 146.005,2.800 145.325 C 2.800 144.816,3.143 144.735,4.600 144.899 L 6.400 145.102 6.400 143.151 C 6.400 141.683,6.549 141.200,7.000 141.200 C 7.330 141.200,7.600 141.020,7.600 140.800 C 7.600 140.580,7.764 140.400,7.965 140.400 C 8.166 140.400,8.315 141.795,8.297 143.500 C 8.279 145.205,8.474 146.993,8.732 147.474 C 9.083 148.128,9.200 161.401,9.200 200.363 L 9.200 252.379 10.380 252.990 C 11.411 253.523,15.865 253.600,45.547 253.600 C 72.381 253.600,79.568 253.705,79.699 254.100 C 79.806 254.421,81.074 254.685,83.233 254.836 C 85.521 254.996,86.318 255.169,85.721 255.377 C 85.238 255.545,84.787 255.973,84.719 256.328 C 84.621 256.837,84.183 256.948,82.647 256.853 L 80.699 256.733 80.974 258.567 C 81.231 260.280,81.182 260.427,80.225 260.791 C 79.015 261.251,78.832 261.771,80.012 261.396 C 80.949 261.099,86.943 255.247,87.322 254.260 C 87.461 253.897,87.761 253.600,87.987 253.600 C 88.214 253.600,88.400 253.427,88.400 253.214 C 88.400 253.001,86.656 252.778,84.500 252.714 L 80.600 252.600 80.499 200.348 C 80.413 156.098,80.311 148.024,79.836 147.630 C 79.419 147.284,70.663 147.171,45.635 147.191 C 5.747 147.222,9.360 147.752,9.103 141.832 C 8.964 138.634,8.718 138.690,4.800 142.809 M103.394 200.000 C 103.394 228.490,103.442 240.145,103.500 225.900 C 103.558 211.655,103.558 188.345,103.500 174.100 C 103.442 159.855,103.394 171.510,103.394 200.000 M311.394 200.000 C 311.394 228.490,311.442 240.145,311.500 225.900 C 311.558 211.655,311.558 188.345,311.500 174.100 C 311.442 159.855,311.394 171.510,311.394 200.000 M210.202 280.168 C 207.419 282.874,206.382 284.141,206.518 284.668 C 206.693 285.345,206.711 285.346,206.754 284.690 C 206.779 284.300,207.250 283.809,207.800 283.600 C 208.350 283.391,208.800 282.945,208.800 282.610 C 208.800 281.535,212.261 281.784,212.833 282.900 C 213.086 283.395,213.638 284.075,214.059 284.411 C 214.805 285.006,214.823 286.281,214.806 336.869 C 214.795 370.152,214.930 389.090,215.184 389.759 L 215.580 390.800 302.403 390.800 C 378.674 390.800,389.400 390.873,390.662 391.400 C 391.451 391.730,393.381 392.025,394.949 392.054 C 396.517 392.084,397.404 392.186,396.919 392.280 C 396.434 392.374,395.927 392.799,395.792 393.225 C 395.657 393.651,395.271 394.000,394.936 394.000 C 394.600 394.000,394.231 394.360,394.116 394.800 C 393.795 396.027,392.485 395.812,392.287 394.500 C 392.184 393.821,392.097 394.126,392.060 395.300 C 392.019 396.608,391.751 397.449,391.200 398.000 C 390.760 398.440,390.414 399.115,390.432 399.500 C 390.457 400.058,390.510 400.078,390.692 399.600 C 390.818 399.270,392.527 397.425,394.490 395.501 C 398.943 391.136,398.973 390.647,394.807 390.481 C 393.043 390.410,391.698 390.165,391.518 389.881 C 391.350 389.616,391.209 365.951,391.206 337.290 L 391.200 285.180 390.174 284.790 C 389.519 284.541,357.802 284.400,302.417 284.400 C 223.698 284.400,215.663 284.342,215.443 283.767 C 215.309 283.419,215.200 281.619,215.200 279.767 C 215.200 275.431,215.060 275.442,210.202 280.168 M6.711 278.199 C 5.990 278.950,4.616 280.384,3.659 281.385 C 2.701 282.386,1.486 283.314,0.959 283.446 C 0.032 283.679,-0.400 284.400,0.388 284.400 C 0.945 284.400,4.175 282.696,4.333 282.318 C 4.407 282.143,4.905 282.000,5.441 282.000 C 6.274 282.000,6.380 281.859,6.170 281.025 C 6.011 280.391,6.184 279.694,6.663 279.037 C 7.906 277.330,8.267 277.767,8.267 280.979 C 8.267 282.655,8.470 284.202,8.732 284.518 C 9.079 284.936,9.223 298.454,9.299 337.839 L 9.400 390.600 97.000 390.810 C 165.922 390.975,184.975 391.127,186.360 391.525 C 187.395 391.822,188.837 391.923,189.860 391.770 C 190.996 391.600,191.600 391.658,191.600 391.939 C 191.600 392.613,189.928 394.000,189.115 394.000 C 188.711 394.000,188.201 394.405,187.982 394.900 C 187.762 395.395,187.053 396.520,186.405 397.400 C 185.193 399.046,184.898 400.000,185.600 400.000 C 185.820 400.000,186.000 399.671,186.000 399.268 C 186.000 398.549,189.773 394.400,190.427 394.400 C 190.611 394.400,191.320 393.588,192.003 392.596 C 193.465 390.471,193.447 390.458,189.000 390.308 L 185.800 390.200 185.699 337.819 C 185.629 302.020,185.465 285.305,185.179 285.019 C 184.891 284.731,157.429 284.537,97.413 284.400 C 49.373 284.290,9.917 284.051,9.735 283.868 C 9.552 283.686,9.339 282.123,9.260 280.395 C 9.090 276.654,8.600 276.231,6.711 278.199 " stroke="none" fill="#924b2b" fill-rule="evenodd"></path><path id="path1" d="M0.000 4.000 C 0.000 8.199,0.296 8.785,1.670 7.300 C 2.026 6.915,3.596 5.346,5.159 3.814 C 8.937 0.110,8.903 0.000,4.000 0.000 L 0.000 0.000 0.000 4.000 M185.538 4.100 C 185.703 9.003,185.289 8.498,189.299 8.692 C 191.115 8.780,193.005 9.051,193.500 9.294 L 194.400 9.735 194.400 63.262 L 194.400 116.789 190.450 120.808 C 187.811 123.493,186.054 124.955,185.153 125.213 C 182.246 126.047,9.974 125.703,8.592 124.861 C 7.928 124.455,6.578 123.264,5.592 122.212 C 2.636 119.060,1.028 117.604,0.500 117.602 C 0.109 117.600,0.000 120.666,0.000 131.600 C 0.000 140.885,0.138 145.600,0.410 145.600 C 0.635 145.600,2.336 144.049,4.189 142.153 C 6.043 140.257,8.039 138.457,8.626 138.153 C 10.460 137.201,79.397 137.344,79.836 138.300 C 80.013 138.685,80.257 140.530,80.379 142.400 L 80.600 145.800 84.338 146.007 C 89.797 146.310,89.200 139.575,89.200 200.856 L 89.200 253.960 85.089 258.156 C 79.626 263.733,83.912 263.200,44.521 263.200 L 10.294 263.200 8.868 262.319 C 8.084 261.834,5.963 259.944,4.154 258.119 C 2.345 256.293,0.670 254.800,0.432 254.800 C 0.131 254.800,0.000 259.036,0.000 268.800 C 0.000 285.152,-0.369 284.324,4.587 279.100 L 8.097 275.400 96.113 275.296 C 177.728 275.200,184.183 275.241,184.865 275.858 C 185.456 276.394,185.600 277.122,185.600 279.582 C 185.600 283.452,185.755 283.600,189.818 283.600 C 194.977 283.600,194.425 276.851,194.304 338.458 L 194.200 391.843 190.500 395.391 C 185.314 400.364,184.564 400.000,200.000 400.000 C 215.450 400.000,214.698 400.372,209.430 395.331 C 206.528 392.555,205.603 391.410,205.414 390.362 C 205.279 389.613,205.221 365.289,205.284 336.310 L 205.400 283.620 206.600 282.490 C 207.260 281.868,208.363 280.739,209.051 279.980 C 209.740 279.221,211.133 277.835,212.147 276.900 L 213.992 275.200 301.707 275.200 C 378.618 275.200,389.526 275.273,390.270 275.794 C 390.996 276.303,391.138 276.869,391.259 279.761 C 391.430 283.842,390.959 283.440,395.900 283.728 L 400.000 283.967 400.000 269.383 C 400.000 259.135,399.871 254.800,399.564 254.800 C 399.325 254.800,397.671 256.285,395.889 258.100 C 394.108 259.915,392.109 261.805,391.447 262.300 L 390.245 263.200 355.683 263.200 C 315.666 263.200,320.304 263.785,314.663 258.023 L 310.800 254.079 310.800 200.205 L 310.800 146.332 314.100 142.915 C 318.777 138.073,318.728 138.114,320.078 137.844 C 320.750 137.710,336.737 137.600,355.604 137.600 L 389.908 137.600 390.554 138.586 C 390.986 139.246,391.202 140.470,391.206 142.286 C 391.214 145.886,391.170 145.850,395.900 146.104 L 400.000 146.324 400.000 131.762 C 400.000 123.753,399.848 117.200,399.661 117.200 C 399.257 117.200,397.054 119.303,395.447 121.223 C 394.813 121.980,393.400 123.275,392.307 124.100 L 390.320 125.600 302.986 125.600 C 243.414 125.600,215.304 125.468,214.556 125.183 C 213.954 124.954,211.647 122.958,209.430 120.748 L 205.400 116.729 205.294 63.321 C 205.191 10.972,205.204 9.888,205.968 8.656 C 206.397 7.965,208.290 5.910,210.174 4.090 C 212.058 2.269,213.600 0.604,213.600 0.390 C 213.600 0.144,208.383 -0.000,199.500 -0.000 L 185.400 -0.001 185.538 4.100 M391.115 4.100 C 391.344 8.968,391.151 8.786,396.100 8.794 L 400.000 8.800 400.000 4.400 L 400.000 0.000 395.461 0.000 L 390.922 0.000 391.115 4.100 M287.836 138.300 C 288.013 138.685,288.257 140.530,288.379 142.400 L 288.600 145.800 292.338 146.007 C 297.797 146.310,297.200 139.575,297.200 200.856 L 297.200 253.960 293.089 258.156 C 290.829 260.464,288.477 262.543,287.863 262.776 C 285.851 263.541,113.444 263.353,111.823 262.584 C 111.109 262.245,108.787 260.193,106.663 258.023 L 102.800 254.079 102.800 200.205 L 102.800 146.332 106.100 142.908 C 110.303 138.546,110.634 138.254,111.709 137.940 C 114.145 137.229,287.507 137.583,287.836 138.300 M395.654 395.654 C 391.156 400.152,391.144 400.000,396.000 400.000 L 400.000 400.000 400.000 396.000 C 400.000 391.144,400.152 391.156,395.654 395.654 M0.000 396.200 L 0.000 400.000 4.000 400.000 C 8.834 400.000,8.812 400.170,4.530 395.878 C 0.082 391.421,0.000 391.427,0.000 396.200 " stroke="none" fill="#f1ebe7" fill-rule="evenodd"></path><path id="path2" d="M8.000 0.324 C 8.000 0.501,8.264 0.996,8.587 1.424 C 8.984 1.948,9.179 3.213,9.187 5.320 L 9.200 8.441 10.587 9.020 C 11.784 9.520,23.828 9.600,98.348 9.600 L 184.722 9.600 185.167 10.876 C 185.485 11.789,185.606 26.818,185.593 63.576 L 185.574 115.000 189.266 115.116 C 193.226 115.241,194.156 115.619,193.783 116.956 C 193.595 117.629,193.633 117.679,193.968 117.200 C 194.256 116.788,194.390 99.858,194.394 63.244 C 194.401 2.438,194.853 8.835,190.550 8.813 C 189.203 8.806,187.538 8.688,186.850 8.550 L 185.600 8.300 185.600 4.783 C 185.600 2.848,185.491 0.981,185.357 0.633 C 185.090 -0.065,8.000 -0.373,8.000 0.324 M214.613 0.700 C 214.777 1.085,214.997 3.020,215.102 5.000 C 215.207 6.980,215.474 8.825,215.695 9.100 C 216.015 9.497,234.050 9.600,303.449 9.600 C 351.492 9.600,390.843 9.645,390.895 9.700 C 390.947 9.755,391.082 33.470,391.195 62.400 L 391.400 115.000 394.800 115.256 C 396.670 115.397,398.605 115.643,399.100 115.803 L 400.000 116.093 400.000 62.447 L 400.000 8.800 396.233 8.800 C 391.075 8.800,391.200 8.885,391.200 5.407 C 391.200 3.808,391.088 1.937,390.950 1.250 L 390.700 0.000 302.507 0.000 C 218.667 0.000,214.329 0.035,214.613 0.700 M8.830 138.164 C 8.509 138.550,8.494 138.811,8.781 138.988 C 9.011 139.131,9.200 140.482,9.200 141.991 C 9.200 147.708,5.799 147.222,45.635 147.191 C 70.663 147.171,79.419 147.284,79.836 147.630 C 80.311 148.024,80.413 156.098,80.499 200.348 L 80.600 252.600 84.544 252.715 L 88.488 252.830 88.299 253.819 C 88.146 254.618,88.214 254.720,88.655 254.355 C 89.483 253.667,89.466 148.117,88.638 146.984 C 88.175 146.351,87.414 146.178,84.338 146.007 L 80.600 145.800 80.379 142.400 C 80.257 140.530,80.013 138.685,79.836 138.300 C 79.391 137.333,9.630 137.199,8.830 138.164 M111.725 137.879 C 110.858 138.047,110.857 138.057,111.625 138.825 C 112.261 139.461,112.400 140.167,112.400 142.767 C 112.400 144.509,112.510 146.221,112.644 146.571 C 112.866 147.150,120.733 147.206,200.095 147.196 C 264.673 147.188,287.443 147.304,287.849 147.641 C 288.307 148.021,288.414 156.679,288.499 200.348 L 288.600 252.600 292.544 252.715 L 296.488 252.830 296.299 253.819 C 296.146 254.618,296.214 254.720,296.655 254.355 C 297.483 253.667,297.466 148.117,296.638 146.984 C 296.175 146.351,295.414 146.178,292.338 146.007 L 288.600 145.800 288.379 142.400 C 288.257 140.530,288.013 138.685,287.836 138.300 C 287.533 137.641,115.069 137.229,111.725 137.879 M319.725 137.879 C 318.858 138.047,318.857 138.057,319.625 138.825 C 320.261 139.461,320.400 140.167,320.400 142.767 C 320.400 144.509,320.509 146.219,320.643 146.567 C 320.862 147.137,324.275 147.200,355.154 147.200 C 385.522 147.200,389.523 147.271,390.311 147.823 L 391.200 148.445 391.200 200.143 C 391.200 239.818,391.312 251.952,391.680 252.320 C 391.965 252.605,393.335 252.800,395.047 252.800 C 398.540 252.800,399.177 253.002,398.909 254.026 C 398.771 254.556,398.911 254.800,399.353 254.800 C 399.946 254.800,400.000 250.253,400.000 200.652 L 400.000 146.505 398.500 146.257 C 397.675 146.120,395.804 146.007,394.343 146.004 C 391.243 145.999,391.200 145.947,391.200 142.153 C 391.200 140.451,390.980 139.236,390.554 138.586 L 389.908 137.600 355.254 137.654 C 336.194 137.684,320.206 137.786,319.725 137.879 M8.898 275.466 C 8.621 275.577,8.530 275.878,8.696 276.134 C 8.861 276.390,9.095 278.168,9.216 280.084 C 9.337 282.001,9.577 283.711,9.751 283.884 C 9.925 284.058,49.373 284.290,97.413 284.400 C 157.429 284.537,184.891 284.731,185.179 285.019 C 185.465 285.305,185.629 302.020,185.699 337.819 L 185.800 390.200 189.188 390.318 C 191.455 390.396,192.789 390.628,193.220 391.018 C 193.575 391.339,193.985 391.481,194.132 391.334 C 194.280 391.187,194.400 367.185,194.400 337.995 C 194.400 276.734,194.987 283.600,189.749 283.600 C 185.763 283.600,185.600 283.442,185.600 279.582 C 185.600 277.127,185.456 276.393,184.869 275.862 C 184.156 275.217,10.485 274.826,8.898 275.466 M213.362 275.662 C 213.181 275.954,213.252 276.015,213.556 275.827 C 214.665 275.142,215.200 276.439,215.200 279.816 C 215.200 281.641,215.309 283.419,215.443 283.767 C 215.663 284.342,223.698 284.400,302.417 284.400 C 357.802 284.400,389.519 284.541,390.174 284.790 L 391.200 285.180 391.200 337.157 C 391.200 365.745,391.309 389.419,391.443 389.767 C 391.633 390.264,392.310 390.400,394.589 390.400 C 396.886 390.400,397.704 390.567,398.509 391.200 C 399.069 391.640,399.633 392.000,399.763 392.000 C 399.893 392.000,400.000 367.724,400.000 338.054 L 400.000 284.109 398.144 283.854 C 397.123 283.714,395.254 283.600,393.991 283.600 C 391.305 283.600,391.214 283.455,391.205 279.123 C 391.201 276.813,391.078 276.360,390.311 275.823 C 389.155 275.013,213.861 274.853,213.362 275.662 " stroke="none" fill="#ef854f" fill-rule="evenodd"></path><path id="path3" d="M7.654 3.900 C 7.624 4.175,7.330 4.400,7.000 4.400 C 6.547 4.400,6.400 4.889,6.400 6.400 L 6.400 8.400 4.649 8.400 C 3.580 8.400,2.704 8.634,2.400 9.000 C 2.126 9.330,1.474 9.600,0.951 9.600 L 0.000 9.600 0.000 62.957 L 0.000 116.313 0.932 116.547 C 2.004 116.816,5.402 119.985,5.783 121.071 C 5.924 121.472,6.929 122.385,8.015 123.100 L 9.991 124.400 96.746 124.400 C 188.221 124.400,185.875 124.438,186.249 122.949 C 186.380 122.427,186.737 122.000,187.043 122.000 C 187.395 122.000,187.600 121.558,187.600 120.800 C 187.600 119.787,187.756 119.600,188.600 119.600 C 189.150 119.600,189.600 119.432,189.600 119.227 C 189.600 119.022,189.960 118.740,190.400 118.600 C 192.035 118.081,191.116 117.600,188.489 117.600 C 186.273 117.600,185.653 117.454,185.093 116.800 C 184.412 116.005,183.888 116.000,97.904 115.960 C 50.327 115.938,10.950 115.795,10.400 115.642 L 9.400 115.364 9.299 62.821 C 9.226 25.438,9.070 10.126,8.758 9.750 C 8.517 9.459,8.182 7.912,8.014 6.311 C 7.846 4.710,7.684 3.625,7.654 3.900 M210.200 6.800 C 210.060 7.240,209.789 7.600,209.598 7.600 C 209.406 7.600,208.653 8.144,207.925 8.810 L 206.600 10.020 206.494 63.060 L 206.388 116.101 210.548 120.250 L 214.708 124.400 302.520 124.400 L 390.332 124.400 391.800 122.400 C 392.607 121.300,393.421 120.400,393.607 120.400 C 393.794 120.400,394.054 120.059,394.186 119.643 C 394.318 119.227,394.781 118.794,395.213 118.681 C 396.776 118.272,395.999 117.600,393.963 117.600 C 392.532 117.600,391.624 117.362,390.909 116.800 C 389.899 116.006,389.286 116.000,302.975 116.000 C 224.492 116.000,215.996 115.939,215.429 115.371 C 214.864 114.806,214.800 109.464,214.800 62.541 L 214.800 10.338 213.631 9.170 C 212.928 8.466,212.219 8.095,211.850 8.236 C 211.514 8.365,211.019 8.335,210.751 8.170 C 210.413 7.961,210.529 7.770,211.132 7.547 C 211.609 7.370,212.000 6.950,212.000 6.613 C 212.000 5.710,210.497 5.866,210.200 6.800 M110.869 140.113 C 110.831 140.504,110.530 140.929,110.200 141.055 C 109.777 141.218,109.600 141.878,109.600 143.299 L 109.600 145.311 107.600 145.075 C 105.802 144.862,105.600 144.917,105.600 145.619 C 105.600 146.119,105.327 146.400,104.843 146.400 C 103.588 146.400,103.600 145.894,103.611 200.533 L 103.622 253.400 107.638 257.400 L 111.655 261.400 199.116 261.504 C 297.924 261.621,289.474 261.899,288.970 258.538 L 288.699 256.733 290.647 256.853 C 292.183 256.948,292.621 256.837,292.719 256.328 C 292.787 255.973,293.238 255.545,293.721 255.377 C 294.318 255.169,293.521 254.996,291.233 254.836 C 289.074 254.685,287.806 254.421,287.699 254.100 C 287.567 253.702,269.713 253.600,200.209 253.600 C 117.441 253.600,112.868 253.563,112.543 252.900 C 112.354 252.515,112.080 228.440,111.933 199.400 C 111.714 156.083,111.340 135.249,110.869 140.113 M318.869 140.113 C 318.831 140.504,318.530 140.929,318.200 141.055 C 317.777 141.218,317.600 141.878,317.600 143.299 L 317.600 145.311 315.600 145.075 C 313.802 144.862,313.600 144.917,313.600 145.619 C 313.600 146.119,313.327 146.400,312.843 146.400 C 311.588 146.400,311.600 145.894,311.611 200.533 L 311.622 253.400 315.638 257.400 L 319.655 261.400 354.128 261.521 C 390.621 261.648,391.038 261.629,392.248 259.783 C 392.602 259.243,393.141 258.800,393.446 258.800 C 393.751 258.800,394.000 258.471,394.000 258.070 C 394.000 257.332,394.738 256.434,396.200 255.394 C 396.923 254.880,396.728 254.824,394.176 254.813 C 392.330 254.804,391.084 254.597,390.576 254.213 C 389.908 253.707,385.007 253.624,355.343 253.613 C 322.931 253.601,320.865 253.558,320.543 252.900 C 320.354 252.515,320.080 228.440,319.933 199.400 C 319.714 156.083,319.340 135.249,318.869 140.113 M7.600 140.800 C 7.600 141.020,7.330 141.200,7.000 141.200 C 6.549 141.200,6.400 141.683,6.400 143.151 L 6.400 145.102 4.659 144.905 C 3.124 144.733,2.890 144.812,2.690 145.577 C 2.563 146.064,1.922 146.650,1.231 146.911 L 0.000 147.375 -0.000 200.460 L -0.000 253.544 0.900 253.672 C 1.395 253.742,1.978 254.205,2.195 254.700 C 2.412 255.195,2.806 255.600,3.071 255.600 C 3.336 255.600,4.509 256.758,5.677 258.173 C 6.844 259.588,8.104 260.758,8.476 260.773 C 8.848 260.788,9.264 260.980,9.400 261.200 C 9.562 261.462,21.584 261.600,44.162 261.600 C 83.624 261.600,81.456 261.781,80.968 258.528 L 80.699 256.733 82.647 256.853 C 84.183 256.948,84.621 256.837,84.719 256.328 C 84.787 255.973,85.238 255.545,85.721 255.377 C 86.318 255.169,85.521 254.996,83.233 254.836 C 81.074 254.685,79.806 254.421,79.699 254.100 C 79.568 253.705,72.381 253.600,45.547 253.600 C 15.865 253.600,11.411 253.523,10.380 252.990 L 9.200 252.379 9.200 200.363 C 9.200 161.401,9.083 148.128,8.732 147.474 C 8.474 146.993,8.279 145.205,8.297 143.500 C 8.315 141.795,8.166 140.400,7.965 140.400 C 7.764 140.400,7.600 140.580,7.600 140.800 M6.663 279.037 C 6.184 279.694,6.011 280.391,6.170 281.025 C 6.381 281.865,6.276 282.000,5.408 282.000 C 4.853 282.000,4.400 282.146,4.400 282.324 C 4.400 282.502,3.412 283.087,2.204 283.624 L 0.008 284.600 0.004 337.500 C 0.001 371.701,0.138 390.400,0.391 390.400 C 0.902 390.400,9.600 399.098,9.600 399.609 C 9.600 400.246,185.196 400.137,185.213 399.500 C 185.221 399.225,185.757 398.280,186.405 397.400 C 187.053 396.520,187.762 395.395,187.982 394.900 C 188.201 394.405,188.711 394.000,189.115 394.000 C 189.928 394.000,191.600 392.613,191.600 391.939 C 191.600 391.658,190.996 391.600,189.860 391.770 C 188.837 391.923,187.395 391.822,186.360 391.525 C 184.975 391.127,165.922 390.975,97.000 390.810 L 9.400 390.600 9.299 337.839 C 9.223 298.454,9.079 284.936,8.732 284.518 C 8.470 284.202,8.267 282.655,8.267 280.979 C 8.267 277.767,7.906 277.330,6.663 279.037 M208.800 282.637 C 208.800 282.988,208.426 283.373,207.969 283.492 C 206.423 283.897,206.400 284.679,206.400 337.861 L 206.400 390.069 207.700 391.935 C 208.415 392.961,209.180 393.868,209.400 393.950 C 210.228 394.262,214.400 398.796,214.400 399.385 C 214.400 399.936,223.509 400.000,302.400 400.000 C 380.356 400.000,390.400 399.932,390.400 399.400 C 390.400 399.070,390.760 398.440,391.200 398.000 C 391.751 397.449,392.019 396.608,392.060 395.300 C 392.097 394.126,392.184 393.821,392.287 394.500 C 392.485 395.812,393.795 396.027,394.116 394.800 C 394.231 394.360,394.600 394.000,394.936 394.000 C 395.271 394.000,395.657 393.651,395.792 393.225 C 395.927 392.799,396.434 392.374,396.919 392.280 C 397.404 392.186,396.517 392.084,394.949 392.054 C 393.381 392.025,391.451 391.730,390.662 391.400 C 389.400 390.873,378.674 390.800,302.403 390.800 L 215.580 390.800 215.184 389.759 C 214.930 389.090,214.795 370.152,214.806 336.869 C 214.823 286.281,214.805 285.006,214.059 284.411 C 213.638 284.075,213.086 283.395,212.833 282.900 C 212.250 281.762,208.800 281.537,208.800 282.637 " stroke="none" fill="#4f2513" fill-rule="evenodd"></path><path id="path4" d="M213.821 0.735 C 213.670 1.211,213.389 1.600,213.198 1.600 C 212.539 1.600,205.622 8.772,205.399 9.686 C 205.277 10.189,205.227 34.479,205.288 63.664 L 205.400 116.729 209.430 120.748 C 211.647 122.958,213.954 124.954,214.556 125.183 C 215.304 125.468,243.411 125.600,302.976 125.600 L 390.299 125.600 392.550 123.933 C 393.787 123.016,394.800 122.134,394.800 121.973 C 394.800 121.812,395.970 120.481,397.400 119.015 C 398.830 117.549,400.000 116.271,400.000 116.175 C 400.000 115.382,398.496 116.447,396.437 118.700 C 393.386 122.038,393.685 121.738,391.947 123.188 L 390.494 124.400 302.433 124.400 L 214.372 124.400 210.386 120.366 L 206.400 116.333 206.400 62.919 L 206.400 9.506 207.600 8.139 C 208.260 7.387,208.800 6.611,208.800 6.413 C 208.800 6.216,209.115 5.947,209.500 5.817 C 211.073 5.286,214.875 1.262,214.476 0.551 C 214.133 -0.062,214.068 -0.044,213.821 0.735 M4.620 4.425 C 2.661 6.391,0.819 8.000,0.529 8.000 C 0.238 8.000,0.000 8.270,0.000 8.600 C 0.000 9.920,1.425 9.034,4.668 5.700 C 6.724 3.586,8.327 2.254,8.715 2.336 C 9.278 2.454,9.288 2.381,8.792 1.736 C 8.481 1.331,8.216 0.966,8.204 0.925 C 8.192 0.883,6.579 2.458,4.620 4.425 M189.719 120.232 L 185.641 124.400 97.578 124.400 L 9.515 124.400 8.258 123.415 C 7.566 122.873,6.760 122.168,6.466 121.849 C 1.623 116.583,0.000 115.366,0.000 117.000 C 0.000 117.330,0.225 117.601,0.500 117.602 C 1.028 117.604,2.636 119.060,5.592 122.212 C 6.578 123.264,7.928 124.455,8.592 124.861 C 9.940 125.682,182.240 126.049,185.075 125.236 C 186.951 124.698,194.632 116.898,193.953 116.220 C 193.868 116.134,191.962 117.940,189.719 120.232 M4.396 141.986 C 2.528 143.958,0.775 145.578,0.500 145.586 C -0.259 145.607,-0.098 146.400,0.665 146.400 C 1.030 146.400,2.914 144.766,4.852 142.768 C 7.204 140.344,8.545 139.239,8.887 139.445 C 9.260 139.669,9.250 139.568,8.851 139.077 C 8.058 138.100,8.108 138.067,4.396 141.986 M106.684 142.374 L 102.800 146.349 102.800 200.214 L 102.800 254.079 106.663 258.023 C 108.787 260.193,111.109 262.245,111.823 262.584 C 113.366 263.316,285.842 263.544,287.757 262.817 C 289.072 262.316,295.800 255.665,296.169 254.500 C 296.501 253.451,295.717 253.229,295.322 254.260 C 295.182 254.623,293.613 256.378,291.834 258.160 L 288.600 261.400 200.000 261.400 L 111.400 261.400 107.400 257.405 L 103.400 253.409 103.400 200.205 L 103.400 147.000 107.368 143.000 C 109.551 140.800,111.499 139.049,111.698 139.110 C 111.897 139.170,111.945 139.035,111.806 138.810 C 111.274 137.948,110.450 138.522,106.684 142.374 M314.684 142.374 L 310.800 146.349 310.800 200.214 L 310.800 254.079 314.663 258.023 C 320.304 263.785,315.666 263.200,355.683 263.200 L 390.245 263.200 391.442 262.300 C 394.316 260.140,398.845 255.122,398.699 254.261 C 398.557 253.425,398.538 253.429,398.043 254.400 C 397.762 254.950,396.836 255.940,395.985 256.600 C 395.134 257.260,394.429 257.956,394.419 258.146 C 394.388 258.710,391.475 261.217,390.604 261.429 C 390.162 261.536,373.960 261.574,354.600 261.512 L 319.400 261.400 315.400 257.405 L 311.400 253.409 311.400 200.205 L 311.400 147.000 315.368 143.000 C 317.551 140.800,319.499 139.049,319.698 139.110 C 319.897 139.170,319.945 139.035,319.806 138.810 C 319.274 137.948,318.450 138.522,314.684 142.374 M0.000 254.200 C 0.000 254.530,0.195 254.800,0.432 254.800 C 0.670 254.800,2.345 256.293,4.154 258.119 C 5.963 259.944,8.084 261.834,8.868 262.319 L 10.294 263.200 44.521 263.200 C 65.389 263.200,79.142 263.050,79.757 262.817 C 81.072 262.316,87.800 255.665,88.169 254.500 C 88.501 253.451,87.717 253.229,87.322 254.260 C 87.182 254.623,85.613 256.378,83.834 258.160 L 80.600 261.400 45.400 261.512 C 26.040 261.574,9.838 261.536,9.396 261.429 C 8.477 261.205,5.600 258.687,5.600 258.106 C 5.600 257.893,5.027 257.288,4.327 256.760 C 3.627 256.232,2.608 255.305,2.061 254.700 C 0.973 253.495,0.000 253.259,0.000 254.200 M4.431 279.227 C 2.578 281.192,0.823 282.800,0.531 282.800 C 0.239 282.800,0.000 282.980,0.000 283.200 C 0.000 284.312,2.479 282.967,4.201 280.920 C 6.664 277.994,8.014 276.830,8.657 277.077 C 9.196 277.284,9.223 277.190,8.832 276.461 C 8.185 275.251,8.174 275.257,4.431 279.227 M209.489 279.612 L 205.400 283.625 205.284 336.312 C 205.221 365.291,205.279 389.613,205.414 390.362 C 205.603 391.410,206.528 392.555,209.430 395.331 C 211.503 397.316,213.200 399.178,213.200 399.469 C 213.200 399.761,213.470 400.000,213.800 400.000 C 214.130 400.000,214.400 399.855,214.400 399.678 C 214.400 398.812,210.356 394.400,209.562 394.400 C 209.400 394.400,208.623 393.521,207.834 392.446 L 206.400 390.493 206.400 337.179 L 206.400 283.866 210.238 280.133 C 212.348 278.080,214.249 276.400,214.461 276.400 C 214.674 276.400,214.736 276.220,214.600 276.000 C 214.122 275.226,213.541 275.636,209.489 279.612 M0.000 391.600 C 0.000 392.040,0.225 392.404,0.500 392.408 C 1.041 392.416,3.973 395.115,6.708 398.122 C 8.373 399.952,9.200 400.435,9.200 399.577 C 9.200 399.024,0.976 390.800,0.423 390.800 C 0.190 390.800,0.000 391.160,0.000 391.600 M398.000 391.344 C 398.000 391.738,396.380 393.643,394.400 395.579 C 390.862 399.037,390.208 400.000,391.400 400.000 C 391.730 400.000,392.000 399.824,392.000 399.608 C 392.000 399.393,393.652 397.587,395.671 395.594 C 399.108 392.203,399.300 391.928,398.671 391.300 C 398.043 390.671,398.000 390.674,398.000 391.344 M191.847 392.800 C 191.265 393.680,190.632 394.400,190.441 394.400 C 189.777 394.400,186.000 398.540,186.000 399.268 C 186.000 399.671,186.180 400.000,186.400 400.000 C 186.620 400.000,186.800 399.763,186.800 399.474 C 186.800 399.185,188.425 397.376,190.411 395.455 C 193.582 392.387,194.368 391.200,193.230 391.200 C 193.052 391.200,192.430 391.920,191.847 392.800 " stroke="none" fill="#8c746c" fill-rule="evenodd"></path></g></svg>