<?xml version="1.0" standalone="no"?>
<!DOCTYPE svg PUBLIC "-//W3C//DTD SVG 20010904//EN"
 "http://www.w3.org/TR/2001/REC-SVG-20010904/DTD/svg10.dtd">
<svg version="1.0" xmlns="http://www.w3.org/2000/svg"
 width="225.000000pt" height="225.000000pt" viewBox="0 0 225.000000 225.000000"
 preserveAspectRatio="xMidYMid meet">
<metadata>
Created by potrace 1.15, written by Peter Selinger 2001-2017
</metadata>
<g transform="translate(0.000000,225.000000) scale(0.100000,-0.100000)"
fill="#000000" stroke="none">
<path d="M1183 2228 c-23 -24 -23 -27 -23 -329 l0 -306 23 -21 c23 -22 24 -22
523 -22 l501 0 23 25 23 25 -26 0 -27 0 0 300 0 300 -494 0 -495 0 -3 26 -3
26 -22 -24z"/>
<path d="M23 2218 c-23 -24 -23 -27 -23 -324 l0 -301 23 -21 c23 -22 24 -22
523 -22 l501 0 23 25 23 25 -26 0 -27 0 0 300 0 300 -494 0 c-494 0 -495 0
-498 21 -3 20 -3 20 -25 -3z"/>
<path d="M22 1448 c-22 -24 -22 -27 -22 -323 l0 -299 27 -28 27 -28 196 0 196
0 29 30 29 30 -27 0 -27 0 0 295 0 295 -197 2 c-197 3 -197 3 -203 26 l-5 24
-23 -24z"/>
<path d="M603 1448 c-23 -24 -23 -27 -23 -323 l0 -299 27 -28 27 -28 491 0
491 0 29 30 29 30 -27 0 -27 0 0 295 0 295 -494 0 -495 0 -3 26 -3 26 -22 -24z"/>
<path d="M1773 1448 c-23 -24 -23 -27 -23 -323 l0 -299 27 -28 27 -28 196 0
196 0 29 30 29 30 -27 0 -27 0 0 295 0 295 -199 0 -200 0 -3 26 -3 26 -22 -24z"/>
<path d="M23 678 c-23 -24 -23 -27 -23 -323 l0 -299 27 -28 27 -28 496 0 497
0 21 23 c28 29 27 34 0 33 l-23 -1 0 298 0 297 -497 0 -497 0 -3 26 -3 26 -22
-24z"/>
<path d="M1183 678 c-23 -24 -23 -27 -23 -329 l0 -306 23 -21 c23 -22 24 -22
518 -22 l496 0 23 25 23 25 -21 0 -22 0 0 300 0 300 -494 0 -495 0 -3 26 -3
26 -22 -24z"/>
</g>
</svg>
